<?xml version="1.0" encoding="UTF-8"?>
<svg id="Layer_1" xmlns="http://www.w3.org/2000/svg" version="1.1" viewBox="0 0 200 200">
  <!-- Generator: Adobe Illustrator 29.6.1, SVG Export Plug-In . SVG Version: 2.1.1 Build 9)  -->
  <defs>
    <style>
      .st0 {
        fill: #fff;
      }

      .st1 {
        fill: #08141e;
      }
    </style>
  </defs>
  <rect class="st1" width="200" height="200" rx="52.9" ry="52.9"/>
  <g>
    <path class="st0" d="M156.5,110.9h-32.1l-18.5-21.7h-31.4l-17.9-21c-1.4-1.6-.2-4.2,1.9-4.2h62.3c.7,0,1.4.3,1.9.9l35.7,41.8c1.4,1.6.2,4.2-1.9,4.2h0Z"/>
    <path class="st0" d="M138.4,136h-59.9c-1,0-2-.4-2.6-1.2l-34.1-40c-1.9-2.2-.3-5.7,2.6-5.7h30.1l18.5,21.7h31.4l16.6,19.5c1.9,2.2.3,5.7-2.6,5.7h0Z"/>
  </g>
</svg>